<svg id="Capa_1" data-name="Capa 1" xmlns="http://www.w3.org/2000/svg" viewBox="0 0 2534.38862 375.03394"><path d="M576.60909,1677.96687q0,3.09734-6.19465,3.09733-4.90668,0-14.32514-.77433-9.42621-.77433-14.32514-.77433-4.90669,0-14.71231.77433-9.81337.77433-14.71231.77433-7.22969,0-18.45491-39.10376-11.22781-39.10377-22.8428-39.62-9.55268-.51364-49.81536-.51622H380.445q-42.58826,0-48.52481.51622-9.292.77433-19.74546,39.749-10.45348,38.97729-16.13192,38.97471H237.9679q-5.16738,0-5.16221-3.61355,0-2.57594,3.61355-11.615l63.23711-172.93328q7.99627-20.907,48.52481-120.53768,7.22193-16.51521,19.61641-49.81536,3.09732-9.80563,6.71087-9.80821a118.03651,118.03651,0,0,1,14.4542,1.29056,117.008,117.008,0,0,0,14.4542,1.29055,103.80792,103.80792,0,0,0,14.067-1.41961,104.1503,104.1503,0,0,1,13.80892-1.41961q2.323,0,6.45277,9.5501,6.19466,14.45807,61.17222,155.64073Q576.60393,1676.16225,576.60909,1677.96687ZM456.32952,1535.49065q0-7.48263-23.23-67.10878-22.45562-57.8142-31.74761-75.88453-53.4289,136.28243-53.4289,142.7352,0,8.77834,19.61641,10.32442,1.02727.2607,25.29484.25811h26.5854Q456.32695,1545.81507,456.32952,1535.49065Z" transform="translate(-232.80569 -1312.48303)"/><path d="M676.756,1675.64388q0,5.42033-7.48521,5.42032-4.646,0-14.19608-.77433-9.55268-.77433-14.19609-.77433-4.90668,0-14.4542.77433-9.55267.77433-14.19608.77433-6.45536,0-6.45277-5.93654,0-29.42462,2.71016-88.661,2.71017-59.23511,2.71016-88.91826,0-28.65028-2.71016-86.07991-2.71015-57.427-2.71016-86.0799,0-6.4489,5.93655-6.45277,4.89894,0,14.97041.77433,10.06632.77433,15.22853.77433,4.646,0,13.938-.77433t13.938-.77433q6.70828,0,6.71087,5.16221,0,28.911-2.06488,86.72519-2.07,57.82065-2.06489,86.72518,0,29.6853,2.19394,89.04732Q676.75088,1645.96632,676.756,1675.64388Z" transform="translate(-232.80569 -1312.48303)"/><path d="M894.08521,1494.70916l-.25811,2.323q-2.323,9.03774-6.19465,26.5854-.77433,8.51765-3.35544,24.77862-.52139,2.323-14.71231,3.09733-9.81337.5201-27.87595,0-23.23-.51364-21.6813-.51622-16.008,0-47.49236,2.96827-31.49466,2.97086-47.23425,2.96827-6.969,0-6.969-8.51765,0-11.86921,14.97042-49.29914,1.288-3.611,7.2271-3.61355,9.03129,0,26.5854.64528,17.54893.64787,26.58539.64528,15.73959,0,47.49237-3.22639,31.7476-3.2238,47.49236-3.22638Q894.33816,1490.32128,894.08521,1494.70916Z" transform="translate(-232.80569 -1312.48303)"/><path d="M1254.4077,1677.96687q0,3.09734-6.19465,3.09733-4.9067,0-14.32515-.77433-9.4262-.77433-14.32514-.77433-4.90668,0-14.71231.77433-9.81336.77433-14.7123.77433-7.22969,0-18.45492-39.10376-11.22782-39.10377-22.84279-39.62-9.55267-.51364-49.81536-.51622H1058.2436q-42.58827,0-48.52481.51622-9.292.77433-19.74546,39.749-10.45349,38.97729-16.13192,38.97471h-58.0749q-5.16738,0-5.16221-3.61355,0-2.57594,3.61355-11.615L977.455,1492.90239q7.99626-20.907,48.5248-120.53768,7.22195-16.51521,19.61641-49.81536,3.09733-9.80563,6.71088-9.80821a118.03651,118.03651,0,0,1,14.4542,1.29056,117.00779,117.00779,0,0,0,14.4542,1.29055,103.80822,103.80822,0,0,0,14.067-1.41961,104.1503,104.1503,0,0,1,13.80892-1.41961q2.323,0,6.45276,9.5501,6.19466,14.45807,61.17223,155.64073Q1254.40255,1676.16225,1254.4077,1677.96687Zm-120.27957-142.47622q0-7.48263-23.23-67.10878-22.45563-57.8142-31.74761-75.88453-53.42891,136.28243-53.42891,142.7352,0,8.77834,19.61641,10.32442,1.02729.2607,25.29485.25811h26.5854Q1134.12556,1545.81507,1134.12813,1535.49065Z" transform="translate(-232.80569 -1312.48303)"/><path d="M1403.85378,1601.56612q0,38.46365-30.71517,61.68845-27.876,21.16765-67.88311,21.16507-15.48663,0-17.55152-.77433-4.393-2.06747-4.38788-12.64742a151.56852,151.56852,0,0,0-1.41961-17.03531,149.76587,149.76587,0,0,1-1.41961-16.77719q0-3.35028,4.646-4.38788a28.99552,28.99552,0,0,1,9.5501,0q7.99626.77433,7.74332.77433,48.78291,0,48.78291-29.94084,0-14.19092-21.42318-26.06918-34.84494-19.0963-40.00716-23.48721-21.42834-18.32326-21.42318-48.00858,0-38.71661,29.1665-60.39789,26.32729-19.35831,66.59255-19.3583a5.56322,5.56322,0,0,1,5.29127,3.35543q1.67514,3.358,6.45277,20.907,4.77246,17.5554,4.775,21.16507,0,2.84309-4.90411,3.61355-16.52166,2.323-33.29627,4.38788-19.87968,5.42033-19.87452,21.6813,0,11.615,20.907,23.48807,30.97328,17.296,39.23282,25.03673Q1403.84862,1570.07748,1403.85378,1601.56612Z" transform="translate(-232.80569 -1312.48303)"/><path d="M1561.8175,1601.56612q0,38.46365-30.71516,61.68845-27.876,21.16765-67.88311,21.16507-15.48664,0-17.55153-.77433-4.393-2.06747-4.38788-12.64742a151.56611,151.56611,0,0,0-1.41961-17.03531,149.76771,149.76771,0,0,1-1.4196-16.77719q0-3.35028,4.646-4.38788a28.99545,28.99545,0,0,1,9.55009,0q7.99628.77433,7.74332.77433,48.78292,0,48.78292-29.94084,0-14.19092-21.42319-26.06918-34.84494-19.0963-40.00715-23.48721-21.42834-18.32326-21.42318-48.00858,0-38.71661,29.1665-60.39789,26.3273-19.35831,66.59255-19.3583a5.56323,5.56323,0,0,1,5.29127,3.35543q1.67514,3.358,6.45277,20.907,4.77246,17.5554,4.775,21.16507,0,2.84309-4.9041,3.61355-16.52166,2.323-33.29627,4.38788-19.8797,5.42033-19.87453,21.6813,0,11.615,20.907,23.48807,30.97328,17.296,39.23282,25.03673Q1561.81234,1570.07748,1561.8175,1601.56612Z" transform="translate(-232.80569 -1312.48303)"/><path d="M1666.09421,1372.36471q0,31.74761-35.36116,31.74761-35.88,0-35.87738-31.74761a29.332,29.332,0,0,1,11.09876-23.48807q10.31926-8.77189,24.77862-8.77577a36.84885,36.84885,0,0,1,24.90768,9.03388Q1666.09421,1358.17249,1666.09421,1372.36471Zm-1.80677,69.948q0,19.87839-2.45205,60.01073-2.45722,40.13879-2.452,60.26884,0,18.84336.77433,56.39632.77433,37.5551.77433,56.13907,0,5.42032-4.646,5.42032h-50.33158q-5.42033,0-5.42033-10.58254,0-17.80964.90339-53.558.90081-35.74575.90339-53.81521,0-20.13264-2.96827-60.3979-2.97086-40.26526-2.96828-60.39789,0-4.38531,5.42033-4.38789a120.60372,120.60372,0,0,1,14.32514,1.29056,83.04084,83.04084,0,0,0,29.1665,0,120.96706,120.96706,0,0,1,14.58326-1.29056Q1664.28486,1437.40859,1664.28744,1442.3127Z" transform="translate(-232.80569 -1312.48303)"/><path d="M1836.18914,1601.56612q0,38.46365-30.71517,61.68845-27.876,21.16765-67.8831,21.16507-15.48664,0-17.55153-.77433-4.393-2.06747-4.38788-12.64742a151.56611,151.56611,0,0,0-1.41961-17.03531,149.76831,149.76831,0,0,1-1.41961-16.77719q0-3.35028,4.646-4.38788a28.99545,28.99545,0,0,1,9.55009,0q7.99628.77433,7.74332.77433,48.78291,0,48.78292-29.94084,0-14.19092-21.42319-26.06918-34.84494-19.0963-40.00715-23.48721-21.42836-18.32326-21.42319-48.00858,0-38.71661,29.16651-60.39789,26.32728-19.35831,66.59255-19.3583a5.56323,5.56323,0,0,1,5.29127,3.35543q1.67514,3.358,6.45276,20.907,4.77247,17.5554,4.775,21.16507,0,2.84309-4.9041,3.61355-16.52166,2.323-33.29628,4.38788-19.87968,5.42033-19.87452,21.6813,0,11.615,20.907,23.48807,30.97328,17.296,39.23282,25.03673Q1836.184,1570.07748,1836.18914,1601.56612Z" transform="translate(-232.80569 -1312.48303)"/><path d="M2017.12472,1633.57184q0,5.681-1.03244,15.48664-1.29573,12.13637-1.54867,15.74475-.26068,4.646-.77433,5.67843-1.035,1.80936-4.9041,3.61355-21.16765,10.06632-66.59255,10.06632-60.3979,0-60.3979-54.71946,0-21.93424,1.03244-65.94642,1.02729-44.004,1.03244-65.94727,0-10.58-10.58253-11.35687-9.55267,0-18.84208-.25811-5.42033-1.288-5.42033-21.16508a126.831,126.831,0,0,1,1.03245-15.74475q.77433-6.19466,8.25954-7.48521,6.4476,0,12.64742-.25811,11.86793-.51363,11.87309-10.58253,0-10.32055-.64527-31.4895-.64786-21.1612-.64528-31.74762,0-18.8382,7.2271-18.84208,2.323,0,48.5248,8.00144,5.934.77433,5.93655,5.67843,0,11.36074-1.67772,34.07061-1.68288,22.71632-1.67772,34.07061,0,7.48908,6.969,7.48521h61.94656q4.3853,0,4.38788,3.09732a85.95243,85.95243,0,0,1-.90339,9.93726,85.18587,85.18587,0,0,0-.90339,10.19538q0,3.87165.25811,11.87309.253,8.004.25811,11.87309,0,4.90668-7.22709,4.9041-10.327,0-31.23139-1.41961-20.907-1.41573-31.23139-1.41961-2.07006,0-3.09733,14.71231-1.29571,18.32973-1.29056,51.364v38.45763q0,22.20268,4.12977,30.97328,6.19467,13.42434,25.553,13.42176,7.99627,0,23.48807-3.4845,15.48664-3.48448,22.97185-3.48449Q2017.12473,1628.92585,2017.12472,1633.57184Z" transform="translate(-232.80569 -1312.48303)"/><path d="M2304.91811,1447.47491a30.0296,30.0296,0,0,1-.77433,4.646q-10.06632,59.10993-10.06632,101.95371,0,2.58369,6.45277,115.89083l.25811,3.61355q.25295,7.49037-6.83993,7.48521a201.85794,201.85794,0,0,0-21.42319,1.67772,202.64072,202.64072,0,0,1-21.29413,1.67772q-4.90668,0-7.48521-18.06775-2.58369-18.06258-4.9041-18.06774-1.54866,0-13.938,10.06631-15.23369,12.38931-28.39217,18.84208-20.39333,10.32184-40.78148,10.32443-50.07864,0-84.40219-40.00715-32.522-38.19522-32.522-89.04732,0-57.30057,32.78006-94.72662,34.32356-38.97084,90.33873-38.97471,39.49094,0,68.91555,27.35973,4.3853,5.16609,13.67986,14.97042a2.231,2.231,0,0,0,1.54867.77433q1.54866,0,4.38788-16.261,2.83664-16.261,7.2271-16.261,6.969,0,26.06918,3.87166Q2304.91294,1443.86137,2304.91811,1447.47491Zm-65.81822,107.89026q0-31.74762-18.84208-54.46135-19.87968-24.51793-50.8478-24.52052-30.97327,0-51.62213,24.26241-19.87968,23.23-19.87452,54.71946,0,31.23268,19.87452,54.20238,20.64627,24.00429,51.62213,24.00429,30.19895,0,50.58969-24.52051Q2239.09731,1586.08206,2239.09989,1555.36517Z" transform="translate(-232.80569 -1312.48303)"/><path d="M2574.38564,1675.902q0,5.681-5.16221,5.67843-8.51764,0-25.4239-.25811-16.90882-.26069-25.4239-.25811-4.646,0-4.646-7.48521,0-12.64225.77433-38.45849.77433-25.80589.77433-38.7166,0-10.31926-.25811-30.84336-.26069-20.5198-.25811-30.84423,0-29.42462-8.51765-41.55581-10.327-14.45161-38.20038-14.4542-12.9107,0-35.87738,14.4542-24.265,15.2324-24.2624,27.10162v154.86554q0,6.45534-4.90411,6.45276-8.2647,0-24.77862-.25811-16.52166-.26069-24.77863-.25811-5.42031,0-5.42032-5.93654,0-20.38558.64528-61.17223.64011-40.77891.64527-61.42948,0-54.97756-11.615-101.43749a12.26831,12.26831,0,0,1-.77433-3.35544q0-2.57724,3.35544-3.61355,1.80162-.25423,29.55367-4.77505,27.74174-4.51306,29.03745-4.51693,1.54866,0,2.06489,4.12977a165.61376,165.61376,0,0,0,5.93654,32.26383q13.4166-10.58,35.36116-26.32729,27.10162-16.51521,52.39647-16.51908,48.52223,0,66.33444,28.13406,13.16364,20.65274,13.16364,66.85067,0,8.004-.38716,24.52051-.38716,16.52166-.38717,24.77776,0,17.296.51622,51.62214Q2574.38307,1658.61116,2574.38564,1675.902Z" transform="translate(-232.80569 -1312.48303)"/><path d="M2767.19431,1633.57184q0,5.681-1.03244,15.48664-1.29571,12.13637-1.54867,15.74475-.26068,4.646-.77433,5.67843-1.035,1.80936-4.9041,3.61355-21.16766,10.06632-66.59255,10.06632-60.3979,0-60.3979-54.71946,0-21.93424,1.03245-65.94642,1.02727-44.004,1.03244-65.94727,0-10.58-10.58254-11.35687-9.55267,0-18.84208-.25811-5.42033-1.288-5.42032-21.16508a126.8328,126.8328,0,0,1,1.03244-15.74475q.77433-6.19466,8.25954-7.48521,6.44762,0,12.64742-.25811,11.86794-.51363,11.8731-10.58253,0-10.32055-.64528-31.4895-.64787-21.1612-.64528-31.74762,0-18.8382,7.2271-18.84208,2.323,0,48.52481,8.00144,5.934.77433,5.93654,5.67843,0,11.36074-1.67772,34.07061-1.68288,22.71632-1.67772,34.07061,0,7.48908,6.969,7.48521h61.94656q4.3853,0,4.38788,3.09732a85.95243,85.95243,0,0,1-.90339,9.93726,85.18536,85.18536,0,0,0-.90338,10.19538q0,3.87165.25811,11.87309.25294,8.004.25811,11.87309,0,4.90668-7.2271,4.9041-10.327,0-31.23139-1.41961-20.907-1.41573-31.23139-1.41961-2.07,0-3.09733,14.71231-1.29571,18.32973-1.29055,51.364v38.45763q0,22.20268,4.12977,30.97328,6.19466,13.42434,25.553,13.42176,7.99627,0,23.48807-3.4845,15.48665-3.48448,22.97185-3.48449Q2767.19432,1628.92585,2767.19431,1633.57184Z" transform="translate(-232.80569 -1312.48303)"/></svg>