<svg id="Capa_1" data-name="Capa 1" xmlns="http://www.w3.org/2000/svg" viewBox="0 0 2268.31412 2270.0999"><defs><style>.cls-1{fill:#aa85c1;}.cls-2{fill:#fec418;}.cls-3{fill:#7839c4;}.cls-4{fill:#feac17;}.cls-5{fill:#1c208f;}.cls-6{fill:#1c208e;}.cls-7{fill:#fdab7c;}.cls-8{fill:#fdfaf7;}.cls-9{fill:#1d218f;}.cls-10{fill:#7839c5;}.cls-11{fill:#783ac4;}.cls-12{fill:#fefdfc;}.cls-13{fill:#7739c5;}</style></defs><path class="cls-1" d="M1462.66305,1939.08273c-.43337,64.62455-1.12119,129.24866-1.24358,193.87382-.21091,111.29479.17816,222.59093-.147,333.88528-.31464,107.6907-59.24233,166.86469-167.52614,167.27857-95.66751.36576-181.24233-23.90242-242.14084-104.71681-38.12005-50.58672-49.32854-105.66314-28.53131-166.30361a44.84553,44.84553,0,0,0,1.87864-7.11164c.24389-1.46034-.152-3.02741-.39012-6.363-34.74517,3.91333-69.36307,7.3918-104.37543,1.26757-130.42674-22.81444-187.91537-105.09321-160.16573-233.29407,4.63409-21.4091,4.957-27.8186-20.45421-24.3133-40.24126,5.55131-77.24855-10.18806-112.706-27.54278-59.54254-29.14328-119.19918-58.67061-160.4263-113.502-43.45265-57.79144-56.66761-123.54385-49.28338-194.55482,2.79909-26.91739,7.01032-53.45089,15.65794-79.08093,4.54849-13.4811-1.47254-23.27133-8.11879-34.03592-32.08668-51.96911-59.19386-106.491-58.84449-169.06255.41275-73.92108,27.66178-137.11655,86.42044-184.2269,10.94208-8.77292,11.77437-16.83328,8.74794-29.51324-17.70044-74.15988-27.18445-149.71661-25.37626-225.75086,2.42325-101.89776,21.014-200.1423,87.08975-282.86947C594.56346,663.208,686.07523,625.374,800.155,652.38089c18.68,4.42225,21.815.25614,22.6638-17.43889,3.54786-73.95912,25.64638-139.69033,88.97412-185.15945,34.7376-24.94151,74.77113-35.65013,116.13294-43.055,69.29733-12.4061,136.62984-6.02612,201.80391,20.54905,10.20528,4.16123,22.10219,6.45437,28.69448,17.08785-19.33832-2.65579-38.66651-5.39485-58.01922-7.94836-63.28067-8.34973-127.90423,18.6155-143.75187,87.38332-6.28079,27.25478-10.51437,54.69275-7.86936,82.44359,5.929,62.20893,24.17457,117.87413,89.62042,142.21269,33.11589,12.31539,67.77149,17.46579,103.21729,9.906,7.54026-1.60819,18.75183,3.4779,21.69544-6.34249,3.10318-10.35292-7.95661-15.21783-14.72915-20.31959-16.97542-12.78762-34.14376-25.21331-48.73365-40.85442-51.25177-54.94458-60.11948-128.59348-20.87878-178.57591,25.47175-32.44445,62.41215-45.81207,99.76664-58.19186,3.89429-28.66338,8.55839-56.95923,35.48846-74.67724,42.56716-28.00613,100.08847-13.79005,127.68163,31.50711,14.47529,23.76294,19.57935,49.65613,19.52524,77.27049q-.39406,201.17944-.02174,402.36019c.00772,10.60794.7606,21.21536,1.16084,31.82615q-.04554,54.2423-.09069,108.47222-.09253,62.34215-.1607,124.69667-.02687,59.58906-.06431,119.17041.08546,85.84857.19225,171.71266-.01911,65.2052-.0383,130.4104-.04542,116.01108-.09076,232.02215Q1462.49343,1873.96567,1462.66305,1939.08273ZM1344.64151,949.039c-63.30144,1.06108-122.96964,16.05807-177.1486,49.112-58.3508,35.599-92.73845,85.09295-91.064,156.91654.83188,35.68184,6.05909,69.62565,17.66962,103.17274,7.93007,22.913,2.09539,29.3084-21.17491,24.39021-11.32084-2.39274-22.21484-5.54292-33.69511-1.96454-49.017,15.2785-79.83149,49.902-97.84475,96.03435-8.8046,22.54859,4.54868,34.85626,28.10476,28.6253a61.4657,61.4657,0,0,0,15.71812-6.82637c76.3735-45.99718,223.90828-7.34481,253.82168,118.94787,15.35926,64.84626,10.20873,130.14-9.49669,193.09673-40.22189,128.50441-107.64778,232.81423-244.52623,279.21959-67.06688,22.73754-130.621,55.861-195.64525,84.55518-5.5839,2.46409-13.80587,3.40967-14.30032,11.33767-.16051,2.57366,4.60114,6.4813,7.9279,8.08764,35.771,17.27107,72.47835,28.71442,113.28114,22.444,37.44894-5.75518,69.67763-23.09775,100.76678-42.73787,44.19809-27.92173,86.84815-58.32089,131.36478-85.70208,30.23089-18.5944,43.80385-15.49188,70.056,8.5339,58.58314,53.61488,69.77552,117.18533,33.18282,187.75889-5.64056,10.87851-11.61046,21.705-15.86585,33.137-2.44849,6.57784-3.91715,15.13078,2.02359,20.92088,6.02978,5.87719,13.89307,3.666,20.70706.69089,7.464-3.25886,15.14115-6.59267,21.67078-11.34335,87.472-63.64091,104.88022-138.28834,49.65045-231.52523-14.56988-24.59646-31.25951-47.93181-46.03851-72.4121-9.10125-15.07546-13.06262-31.10055-5.50257-48.97707,41.80521-98.85295,74.31235-200.52721,86.93067-307.51608,6.48848-55.01481,7.64594-109.99049-34.41733-154.61832-21.86408-23.19691-44.21166-45.81137-68.30934-66.87728-19.41633-16.97344-44.93313-28.45636-55.9822-53.68144-20.1223-45.93946-11.88762-88.7103,14.81534-130.07155,45.83434-70.9944,105.53657-128.56706,170.5887-181.357,7.91411-6.42239,21.13533-13.18258,17.98665-24.14256-3.67678-12.79793-18.29845-5.56877-28.0918-7.07289C1356.20789,948.335,1350.37058,949.039,1344.64151,949.039ZM831.25045,663.26139c-5.30021,9.82141-1.79113,14.08648-.84169,18.74295,5.20592,25.53279,15.52823,50.06712,16.01305,76.49.42823,23.33673-4.51315,26.58192-25.54415,18.62753-16.16251-6.113-31.93036-8.71738-49.95906-5.61074-45.84712,7.90019-84.97172,28.71932-119.92836,57.82457-29.8359,24.84166-49.00846,56.84751-54.65431,95.79024-1.09506,7.55309-4.24374,17.61816,4.094,22.65606,9.047,5.46639,17.59665-.9988,24.59033-6.35965a487.769,487.769,0,0,0,60.05926-54.15543,90.15587,90.15587,0,0,1,43.44255-26.298c50.50222-13.5166,106.03041,4.8603,137.589,47.34221,32.93687,44.33724,21.29223,87.83458-5.23842,130.12146-40.4039,64.39941-84.36451,126.84267-120.63252,193.48131-33.79288,62.09092-81.78917,98.9791-147.8263,122.30252-65.719,23.21093-106.13349,74.48547-117.73426,144.962-5.059,30.73419,1.30817,60.23469,15.81071,87.72261,2.07669,3.93582,6.64643,8.07206,10.76958,9.01164,4.6858,1.0676,5.51264-4.43184,6.16319-8.57558,5.5399-35.2873,25.16108-63.63805,46.64128-90.46865,23.54-29.40374,52.19678-52.41717,91.62392-55.92134,53.314-4.73847,84.041,27.62508,110.06531,68.06517,22.86246,35.527,36.30365,77.81591,71.2296,104.76883,41.13849,31.74722,86.78943,55.33155,136.99189,69.44824,14.07265,3.95711,33.77133,10.38819,41.2146-1.32138,9.00225-14.16211-9.31374-25.39349-19.40479-35.0713-48.95723-46.95175-100.33409-91.321-143.79669-143.91969-74.94625-90.70078-80.04814-171.49208-14.90364-268.54321,26.4831-39.454,59.47783-73.72037,88.98447-110.77157,44.01813-55.27316,80.42443-114.76276,82.39106-187.37978C1001.86857,810.36413,922.15557,734.33689,831.25045,663.26139Zm201.02769,1687.925c5.26918,34.606,18.42938,59.151,34.17621,82.80793,55.71778,83.707,165.5808,50.2394,204.4026-4.1151,6.91015-9.67465,13.66658-20.64161,4.62888-30.97927-9.43883-10.79637-20.16689-1.20147-28.472,3.91932-36.89475,22.74923-74.28575,18.44466-112.72583,4.97014C1098.89246,2395.3822,1068.22184,2374.19705,1032.27814,2351.18639Z" transform="translate(-365.84294 -364.95005)"/><path class="cls-2" d="M2536.48935,1283.4689c74.63494,45.63246,114.32175,152.94766,91.007,245.78821a359.81093,359.81093,0,0,1-52.27627,115.51063c-9.38352,13.76832-9.96319,25.4554-5.49478,40.90067,16.58073,57.31206,21.42014,115.41544,7.50406,174.28947-13.716,58.02814-43.78841,105.58954-91.84511,140.62275-50.37732,36.72471-104.17914,67.56908-164.41007,85.67915-26.90143,8.08855-54.08258,12.159-83.52094,2.91049-2.69732,16.04728,3.72655,29.75174,6.20711,43.55228,20.18691,112.30483-39.73268,197.9489-152.08188,216.68751-33.31421,5.55641-66.55542,7.29586-100.03736,1.58551-8.27665-1.41162-18.33728-5.71395-14.44434,11.51485,23.42342,103.66494-12.85239,186.79906-106.429,235.68094-67.12085,35.062-139.79313,45.57191-214.34578,29.54023-74.17055-15.94954-116.72047-68.48378-117.1423-145.4334-.99519-181.59838-.4437-363.20515-.51731-544.80862,19.80886-3.2007,40.25614.79928,59.806-5.30442,13.83229-.17359,27.85586,1.02563,41.45325-.85534,18.6053-2.57351,27.47121,3.65475,32.1907,22.30612,7.75754,30.65624,18.40593,60.581,27.83532,90.814-17.87168,48.36277-11.382,91.90486,27.38906,127.70632,58.31624,53.84933,145.923,46.70981,198.23888-15.3913,40.35268-47.90063,33.66033-105.1854-16.05412-143.544-22.58323-17.42487-49.13509-25.31254-75.304-34.4426-1.50021-49.881-9.348-98.89523-19.34131-147.69287-3.19814-15.61586-11.14606-21.68448-26.88-21.59513-68.5617.38944-137.12729.10028-205.69138.05756q-21.73464-1.08-43.46912-2.16008-.05823-116.66158-.11632-233.3233,14.5704-1.79769,29.14065-3.59569c138.06957-6.11314,276.15367-11.93292,414.18936-18.73576,16.03059-.79,25.4267,3.15048,33.50278,17.26867,19.46858,34.03368,40.58832,67.12282,61.0422,100.59286-14.972,61.06275-1.09773,104.6603,42.71556,134.22616,62.92541,42.46294,138.455,31.34009,186.54869-27.472,37.37863-45.70952,32.36488-101.03043-13.36055-138.63371-29.24559-24.05068-63.78764-35.73176-101.133-39.73039-20.77947-53.14179-40.55369-106.69341-69.08695-156.45642-10.16585-17.72992-22.91436-28.50283-44.74823-27.28615-22.77974,1.26929-45.67327.32236-68.50173.92265-146.94537,3.86386-293.55346,13.59375-440.02619,25.61639q-15.10757-.32176-30.21515-.64338.00922-83.113.01859-166.22611,22.13172-2.75129,44.2636-5.50244c41.52879-1.52794,83.069-2.79476,124.58414-4.63038q230.88446-10.20887,461.75513-20.72219c5.88812,4.40562,11.70249,8.91391,17.67576,13.201,68.49693,49.16108,158.91408,29.5723,201.35773-43.3658,14.56905-25.03628,16.57563-50.65028,6.11432-77.59038-19.15738-49.33571-92.77989-90.08266-144.812-79.72026-46.52351,9.26543-83.39068,32.34092-106.168,75.21377q-274.81917,10.198-549.63819,20.39607-27.58663-.41958-55.17341-.8393l-.03193-121.53923q38.7485-3.164,77.49686-6.32794c35.936-1.46837,71.92158-2.18774,107.7973-4.56608,67.72284-4.48986,135.43685-9.31212,203.04862-15.2097,42.13544-3.67544,48.49186-10.73783,54.37248-51.27784,8.73625-60.22457,6.22136-120.78169,5.25614-181.291,21.67138-10.04416,41.71813-22.464,57.87793-40.36342,46.33119-51.31828,38.28284-114.58922-19.284-153.2806-19.959-13.41467-42.16438-21.63805-65.14139-27.4564-71.60319-18.13187-152.5262,50.49778-145.82261,123.40021,3.04509,33.11534,21.35434,57.48433,46.04053,77.95591-.779,43.15924-.2388,86.39662-2.78757,129.45107-1.78622,30.17206-8.91987,34.54649-37.8003,35.01224-62.68,1.01093-125.45432-1.25775-187.98864,5.11929q-46.57965-.30153-93.15944-.60291-.01393-211.14735.02923-422.29481c.01049-16.31812.02773-32.546,4.21822-48.71084,13.53219-52.199,50.80619-84.2921,98.10409-83.40151,45.27543.8525,69.10823,25.86035,81.38874,87.30279,48.32023-30.11595,100.57626-46.61256,156.65957-50.32178,62.16151-4.11122,122.952,3.33033,179.3182,30.39224,82.98759,39.84308,114.72334,112.4354,118.80575,199.63539.94888,20.26948,2.51879,25.43618,25.38323,20.01386,110.955-26.31333,200.76008,10.512,272.04383,97.21771,49.93151,60.73364,74.28567,132.06667,84.06238,208.70315,13.61613,106.73441,3.98138,212.06814-23.11237,315.97548-2.23923-.88772-5.61126-1.12194-6.55189-2.75587-21.18869-36.80581-82.9041-38.22305-117.93018-25.59511-78.09436,28.15528-126.56809,110.20553-120.43218,190.3596,4.45042,58.13734,66.8095,123.50916,123.93612,127.43343,5.36.36816,12.4601,2.641,15.67953-3.32587,3.57439-6.62415-3.99547-9.66491-7.04641-14.04653-16.86539-24.22111-31.45169-49.56049-37.68548-78.81005-11.14381-52.288-9.60852-101.654,29.851-143.89976C2448.78586,1287.461,2491.43472,1282.44432,2536.48935,1283.4689Zm-132.6968,579.22648c0-4.91092.20581-9.83235-.04183-14.73083-.56093-11.08973,1.89371-26.32558-13.11171-27.27386-12.54014-.79268-14.21619,13.42025-16.398,23.7795a129.32659,129.32659,0,0,1-25.75439,54.99263c-32.35289,40.138-82.23044,50.37745-123.76044,12.57555-21.82232-19.86362-45.91236-29.84587-75.26887-29.3455-36.00344.61354-72.03.48418-108.03759.00794-18.79777-.24854-30.25728-7.78949-36.76614-28.29214-19.93012-62.77837-48.64536-121.218-98.27722-166.80533-24.75979-22.742-54.86761-32.265-87.64743-29.007-11.12747,1.106-31.452.35781-30.5,17.35906.71353,12.74509,19.18871,13.19765,30.488,14.71795,30.1468,4.05589,47.96211,21.58554,59.75275,47.93091,11.056,24.70394,17.9856,50.70169,24.27291,76.80227,16.626,69.01982,54.37144,117.2985,126.10744,135.25912,37.2761,9.33258,74.79219,4.77632,112.21295,5.727,42.70492,1.085,68.51852,22.572,76.01088,64.74778,2.69463,15.16765,5.11554,30.40635,8.5096,45.42095,3.06533,13.56026,8.55621,17.26313,18.57472,3.92173,10.04953-13.38247,19.86746-28.39812,20.14538-44.01638.60035-33.72952,21.45342-40.79633,48.185-47.12878C2378.24982,1963.76044,2403.73573,1929.99164,2403.79255,1862.69538Zm-340.82363-892.9679c54.544,16.20062,109.64319,22.90317,164.25012,3.39842,56.98962-20.35582,85.701-91.80795,45.58063-136.22659-11.851-13.12082-26.85811-23.48273-40.86174-34.5487-28.95148-22.87825-53.921-47.0514-49.81549-89.17789,1.41013-14.46757-4.00461-29.60026-6.34637-44.71934-2.39482.9934-4.46091,1.17842-5.09724,2.2293a125.883,125.883,0,0,0-8.14054,15.03252c-26.23946,60.67273-44.08341,120.23,11.98071,176.08143,15.4106,15.35188,10.95179,37.953-5.067,54.48079C2140.23089,946.42729,2100.074,953.69624,2062.96892,969.72748ZM1715.099,453.47464c-18.58026,0-33.30372-.5944-47.96436.11213-42.91119,2.068-74.04448,30.953-78.83548,72.628-7.12166,61.94959,18.91215,110.50765,66.55362,145.82774,29.30285,21.72446,53.64577,42.27223,51.87618,82.01708-.27372,6.14863,5.00715,16.45718,10.90412,7.54369,10.28173-15.5412,23.53525-32.12756,12.85373-53.86225-14.85206-30.22168-35.60665-56.62135-53.71187-84.72693-16.7026-25.92816-22.60451-52.55864-14.9513-83.5833C1670.05985,506.044,1695.39437,484.39061,1715.099,453.47464ZM1908.4372,2373.756c17.13791,3.44549,30.9723-6.06112,45.69246-13.09136,14.33341-6.84556,14.1099-14.7977,2.18076-23.16895-34.25709-24.04063-70.5236-44.54388-111.19886-55.42794-37.63451-10.07055-72.951-8.8478-97.50928,28.01392-4.24715,6.37487-15.43159,11.3516-9.48515,20.24092,6.04552,9.03742,16.188,3.79161,24.584,1.034,40.49238-13.29867,75.43032-6.75322,103.21527,27.78668C1876.58783,2372.409,1891.55187,2375.837,1908.4372,2373.756Z" transform="translate(-365.84294 -364.95005)"/><path class="cls-3" d="M1278.742,454.0774c-37.35449,12.37979-74.29489,25.74741-99.76664,58.19186-39.2407,49.98243-30.373,123.63133,20.87878,178.57591,14.58989,15.64111,31.75823,28.0668,48.73365,40.85442,6.77254,5.10176,17.83233,9.96667,14.72915,20.31959-2.94361,9.82039-14.15518,4.7343-21.69544,6.34249-35.4458,7.5598-70.1014,2.4094-103.21729-9.906-65.44585-24.33856-83.69138-80.00376-89.62042-142.21269-2.645-27.75084,1.58857-55.18881,7.86936-82.44359,15.84764-68.76782,80.4712-95.733,143.75187-87.38332,19.35271,2.55351,38.6809,5.29257,58.01922,7.94836l.39131.10418q3.2055,1.54079,6.40911,3.08554C1268.878,451.495,1273.02378,454.41544,1278.742,454.0774Z" transform="translate(-365.84294 -364.95005)"/><path class="cls-4" d="M2536.48935,1283.4689c-45.05463-1.02458-87.70349,3.9921-121.12952,39.7779-39.45956,42.24574-40.99485,91.61173-29.851,143.89976,6.23379,29.24956,20.82009,54.58894,37.68548,78.81005,3.05094,4.38162,10.6208,7.42238,7.04641,14.04653-3.21943,5.96684-10.31951,3.694-15.67953,3.32587-57.12662-3.92427-119.4857-69.29609-123.93612-127.43343-6.13591-80.15407,42.33782-162.20432,120.43218-190.3596,35.02608-12.62794,96.74149-11.2107,117.93018,25.59511.94063,1.63393,4.31266,1.86815,6.55189,2.75587Q2536.01416,1278.67946,2536.48935,1283.4689Z" transform="translate(-365.84294 -364.95005)"/><path class="cls-5" d="M1616.22941,1022.48455q-38.74851,3.16389-77.49641,6.32794-38.11713,1.015-76.23507,2.03.03609-54.23757.07848-108.47829,38.03774-1.49763,76.06245-2.98889,46.579.30143,93.16679.60381Q1624.02532,971.23263,1616.22941,1022.48455Z" transform="translate(-365.84294 -364.95005)"/><path class="cls-6" d="M1598.4694,1932.18485c-19.55087,6.104-39.99815,2.104-59.807,5.30472q-38.00626.79373-76.00549,1.59016-.16042-65.11257-.3435-130.22573,38.25069-.72762,76.52228-1.46618,21.73464,1.08,43.47991,2.16128C1582.80982,1851.07321,1595.6661,1890.96744,1598.4694,1932.18485Z" transform="translate(-365.84294 -364.95005)"/><path class="cls-7" d="M1265.22464,447.55414q-3.204-1.54374-6.40911-3.08552Q1262.01911,446.0134,1265.22464,447.55414Z" transform="translate(-365.84294 -364.95005)"/><path class="cls-3" d="M1344.64151,949.039c5.72907,0,11.56638-.704,17.16339.1556,9.79335,1.50412,24.415-5.725,28.0918,7.07289,3.14868,10.96-10.07254,17.72017-17.98665,24.14256-65.05213,52.79-124.75436,110.36263-170.5887,181.357-26.703,41.36125-34.93764,84.13209-14.81534,130.07155,11.04907,25.22508,36.56587,36.708,55.9822,53.68144,24.09768,21.06591,46.44526,43.68037,68.30934,66.87728,42.06327,44.62783,40.90581,99.60351,34.41733,154.61832-12.61832,106.98887-45.12546,208.66313-86.93067,307.51608-7.56005,17.87652-3.59868,33.90161,5.50257,48.97707,14.779,24.48029,31.46863,47.81564,46.03851,72.4121,55.22977,93.23689,37.82151,167.88432-49.65045,231.52523-6.52963,4.75068-14.20675,8.08449-21.67078,11.34335-6.814,2.9751-14.67728,5.1863-20.70706-.69089-5.94074-5.7901-4.47208-14.343-2.02359-20.92088,4.25539-11.43195,10.22529-22.25845,15.86585-33.137,36.5927-70.57356,25.40032-134.144-33.18282-187.75889-26.25214-24.02578-39.8251-27.1283-70.056-8.5339-44.51663,27.38119-87.16669,57.78035-131.36478,85.70208-31.08915,19.64012-63.31784,36.98269-100.76678,42.73787-40.80279,6.27039-77.51012-5.173-113.28114-22.444-3.32676-1.60634-8.08841-5.514-7.9279-8.08764.49445-7.928,8.71642-8.87358,14.30032-11.33767,65.02421-28.69417,128.57837-61.81764,195.64525-84.55518,136.87845-46.40536,204.30434-150.71518,244.52623-279.21959,19.70542-62.95675,24.856-128.25047,9.49669-193.09673-29.9134-126.29268-177.44818-164.94505-253.82168-118.94787a61.4657,61.4657,0,0,1-15.71812,6.82637c-23.55608,6.231-36.90936-6.07671-28.10476-28.6253,18.01326-46.13231,48.82771-80.75585,97.84475-96.03435,11.48027-3.57838,22.37427-.4282,33.69511,1.96454,23.2703,4.91819,29.105-1.47721,21.17491-24.39021-11.61053-33.54709-16.83774-67.4909-17.66962-103.17274-1.67447-71.82359,32.71318-121.31752,91.064-156.91654C1221.67187,965.09709,1281.34007,950.1001,1344.64151,949.039Z" transform="translate(-365.84294 -364.95005)"/><path class="cls-3" d="M831.25045,663.26139c90.90512,71.0755,170.61812,147.10274,167.20966,272.961-1.96663,72.617-38.37293,132.10662-82.39106,187.37978-29.50664,37.0512-62.50137,71.3176-88.98447,110.77157-65.1445,97.05113-60.04261,177.84243,14.90364,268.54321,43.4626,52.5987,94.83946,96.96794,143.79669,143.91969,10.091,9.67781,28.407,20.90919,19.40479,35.0713-7.44327,11.70957-27.142,5.27849-41.2146,1.32138-50.20246-14.11669-95.8534-37.701-136.99189-69.44824-34.92595-26.95292-48.36714-69.24183-71.2296-104.76883-26.02432-40.44009-56.75134-72.80364-110.06531-68.06517-39.42714,3.50417-68.08388,26.5176-91.62392,55.92134-21.4802,26.8306-41.10138,55.18135-46.64128,90.46865-.65055,4.14374-1.47739,9.64318-6.16319,8.57558-4.12315-.93958-8.69289-5.07582-10.76958-9.01164-14.50254-27.48792-20.86971-56.98842-15.81071-87.72261,11.60077-70.47656,52.01526-121.7511,117.73426-144.962,66.03713-23.32342,114.03342-60.2116,147.8263-122.30252,36.268-66.63864,80.22862-129.0819,120.63252-193.48131,26.53065-42.28688,38.17529-85.78422,5.23842-130.12146-31.55861-42.48191-87.0868-60.85881-137.589-47.34221a90.15587,90.15587,0,0,0-43.44255,26.298,487.769,487.769,0,0,1-60.05926,54.15543c-6.99368,5.36085-15.54337,11.826-24.59033,6.35965-8.33777-5.0379-5.18909-15.103-4.094-22.65606,5.64585-38.94273,24.81841-70.94858,54.65431-95.79024,34.95664-29.10525,74.08124-49.92438,119.92836-57.82457,18.0287-3.10664,33.79655-.50225,49.95906,5.61074,21.031,7.95439,25.97238,4.7092,25.54415-18.62753-.48482-26.42283-10.80713-50.95716-16.01305-76.49C829.45932,677.34787,825.95024,673.0828,831.25045,663.26139Z" transform="translate(-365.84294 -364.95005)"/><path class="cls-8" d="M1538.83568,1807.38782q-38.26642.73571-76.52228,1.46618.06117-116.01916.09362-232.03144c25.45211-.37475,50.73678-5.59643,76.31234-2.758Q1538.77737,1690.72609,1538.83568,1807.38782Z" transform="translate(-365.84294 -364.95005)"/><path class="cls-9" d="M1583.069,1268.40917q-22.13173,2.7512-44.26315,5.50244-38.2671.39979-76.53457.79951.02688-59.58907.04325-119.17265,38.21436-2.588,76.44995-5.18675,27.58662.41969,55.16726.8387Q1588.49415,1209.799,1583.069,1268.40917Z" transform="translate(-365.84294 -364.95005)"/><path class="cls-3" d="M1032.27814,2351.18639c35.9437,23.01066,66.61432,44.19581,102.00984,56.603,38.44008,13.47452,75.83108,17.77909,112.72583-4.97014,8.30513-5.12079,19.03319-14.71569,28.472-3.91932,9.0377,10.33766,2.28127,21.30462-4.62888,30.97927-38.8218,54.3545-148.68482,87.82214-204.4026,4.1151C1050.70752,2410.33744,1037.54732,2385.79239,1032.27814,2351.18639Z" transform="translate(-365.84294 -364.95005)"/><path class="cls-9" d="M1538.71936,1574.06452c-25.57556-2.83839-50.86023,2.38329-76.31234,2.758q.03057-65.19936.03575-130.40186,38.16186-3.1368,76.344-6.28305,15.10758.32176,30.213.64308-.572,64.84386-1.13985,129.68825Q1553.28961,1572.26667,1538.71936,1574.06452Z" transform="translate(-365.84294 -364.95005)"/><path class="cls-8" d="M1538.78681,1440.13772q-38.17716,3.14378-76.344,6.283-.08612-85.86712-.18206-171.7173,38.28328-.38822,76.54514-.79179Q1538.796,1357.02463,1538.78681,1440.13772Z" transform="translate(-365.84294 -364.95005)"/><path class="cls-8" d="M1538.76448,1150.35172q-38.23023,2.596-76.44995,5.18675.09-62.3597.17119-124.70215,38.13612-1.00576,76.24728-2.02383Q1538.74829,1089.582,1538.76448,1150.35172Z" transform="translate(-365.84294 -364.95005)"/><path class="cls-10" d="M1567.86,1570.46883q.56887-64.84408,1.13985-129.688c146.47483-12.02234,293.08292-21.75223,440.02829-25.61609,22.82846-.60029,45.722.34664,68.50173-.92265,21.83387-1.21668,34.58238,9.55623,44.74823,27.28615,28.53326,49.763,48.30748,103.31463,69.08485,156.45507-47.26222,9.43886-88.487,28.55117-114.76861,71.61132-20.45388-33.47-41.57362-66.55918-61.0422-100.59286-8.07608-14.11819-17.47219-18.05865-33.50278-17.26867C1844.01368,1558.53591,1705.92958,1564.35569,1567.86,1570.46883Z" transform="translate(-365.84294 -364.95005)"/><path class="cls-3" d="M1583.069,1268.40917q5.42814-58.60971,10.86274-117.21883,274.8284-10.19706,549.64419-20.39532c-10.20737,41.75091-1.23908,79.0891,25.83234,112.26158q-230.87659,10.38449-461.75513,20.72219C1666.138,1265.61441,1624.59779,1266.88123,1583.069,1268.40917Z" transform="translate(-365.84294 -364.95005)"/><path class="cls-4" d="M2403.79435,1862.69538c-.05862,67.29626-25.54453,101.06506-91.30577,116.64254-26.73159,6.33245-47.58466,13.39926-48.185,47.12878-.27792,15.61826-10.09585,30.63391-20.14538,44.01638-10.01851,13.3414-15.50939,9.63853-18.57472-3.92173-3.39406-15.0146-5.815-30.2533-8.5096-45.42095-7.49236-42.17574-33.306-63.66279-76.01088-64.74778-37.42076-.95067-74.93685,3.60559-112.21295-5.727-71.736-17.96062-109.48144-66.2393-126.10744-135.25912-6.28731-26.10058-13.21694-52.09833-24.27291-76.80227-11.79064-26.34537-29.60595-43.875-59.75275-47.93091-11.29926-1.5203-29.77444-1.97286-30.488-14.71795-.952-17.00125,19.37249-16.25309,30.5-17.35906,32.77982-3.258,62.88764,6.265,87.64743,29.007,49.63186,45.58735,78.3471,104.027,98.27722,166.80533,6.50886,20.50265,17.96837,28.0436,36.76614,28.29214,36.00763.47624,72.03415.6056,108.03759-.00794,29.35651-.50037,53.44655,9.48188,75.26887,29.3455,41.53,37.8019,91.40755,27.56242,123.76044-12.57555a129.32659,129.32659,0,0,0,25.75439-54.99263c2.18181-10.35925,3.85786-24.57218,16.398-23.7795,15.00542.94828,12.55078,16.18413,13.11171,27.27386C2403.99836,1852.863,2403.79255,1857.78446,2403.79435,1862.69538Z" transform="translate(-365.84294 -364.95005)"/><path class="cls-11" d="M1616.22941,1022.48455q7.792-51.25233,15.57624-102.50546c62.52652-6.37794,125.30082-4.10926,187.98084-5.12019,28.88043-.46575,36.01408-4.84018,37.8003-35.01224,2.54877-43.05445,2.00853-86.29183,2.78847-129.43941,39.49223,23.35569,80.71478,35.60944,126.32869,19.73264.96522,60.50935,3.48011,121.06647-5.25614,181.291-5.88062,40.54-12.237,47.6024-54.37248,51.27784-67.61177,5.89758-135.32578,10.71984-203.04862,15.2097C1688.151,1020.29681,1652.16539,1021.01618,1616.22941,1022.48455Z" transform="translate(-365.84294 -364.95005)"/><path class="cls-12" d="M1986.704,770.13989c-45.61391,15.8768-86.83646,3.623-126.32869-19.73264-24.68709-20.48324-42.99634-44.85223-46.04143-77.96757-6.70359-72.90243,74.21942-141.53208,145.82261-123.40021,22.977,5.81835,45.18234,14.04173,65.14139,27.4564,57.56689,38.69138,65.61524,101.96232,19.284,153.2806C2028.42208,747.67589,2008.37533,760.09573,1986.704,770.13989Z" transform="translate(-365.84294 -364.95005)"/><path class="cls-12" d="M2076.59435,1669.5946c26.28159-43.06015,67.50639-62.17246,114.76861-71.61132,37.34745,4,71.8895,15.68106,101.13509,39.73174,45.72543,37.60328,50.73918,92.92419,13.36055,138.63371-48.09373,58.81212-123.62328,69.935-186.54869,27.472C2075.49662,1774.2549,2061.62236,1730.65735,2076.59435,1669.5946Z" transform="translate(-365.84294 -364.95005)"/><path class="cls-12" d="M2169.40827,1243.0566c-27.07142-33.17248-36.03971-70.51067-25.83234-112.2615,22.7775-42.873,59.64467-65.94849,106.16818-75.21392,52.03208-10.3624,125.65459,30.38455,144.812,79.72026,10.46131,26.9401,8.45473,52.5541-6.11432,77.59038-42.44365,72.9381-132.8608,92.52688-201.35773,43.3658C2181.11076,1251.97051,2175.29639,1247.46222,2169.40827,1243.0566Z" transform="translate(-365.84294 -364.95005)"/><path class="cls-12" d="M1834.21748,1978.77834c26.16887,9.13006,52.72073,17.01773,75.304,34.4426,49.71445,38.35864,56.4068,95.64341,16.05412,143.544-52.31584,62.10111-139.92264,69.24063-198.23888,15.3913-38.77107-35.80146-45.26074-79.34355-27.399-127.69718C1733.023,1998.71886,1777.53622,1976.31111,1834.21748,1978.77834Z" transform="translate(-365.84294 -364.95005)"/><path class="cls-13" d="M1834.21748,1978.77834c-56.68126-2.46723-101.19445,19.94052-134.27976,65.68076-9.41949-30.24221-20.06788-60.16693-27.82542-90.82317-4.71949-18.65137-13.5854-24.87963-32.1907-22.30612-13.59739,1.881-27.621.68175-41.45325.85534-2.80225-41.21771-15.65853-81.11194-16.15276-122.63605,68.5533.04152,137.11889.33068,205.68059-.05876,15.73393-.08935,23.68185,5.97927,26.88,21.59513C1824.86949,1879.88311,1832.71727,1928.89736,1834.21748,1978.77834Z" transform="translate(-365.84294 -364.95005)"/><path class="cls-4" d="M2062.96892,969.72748c37.10506-16.03124,77.262-23.30019,106.48312-53.45006,16.01875-16.52779,20.47756-39.12891,5.067-54.48079-56.06412-55.85145-38.22017-115.4087-11.98071-176.08143a125.883,125.883,0,0,1,8.14054-15.03252c.63633-1.05088,2.70242-1.2359,5.09724-2.2293,2.34176,15.11908,7.7565,30.25177,6.34637,44.71934-4.10549,42.12649,20.864,66.29964,49.81549,89.17789,14.00363,11.066,29.0107,21.42788,40.86174,34.5487,40.12033,44.41864,11.409,115.87077-45.58063,136.22659C2172.61211,992.63065,2117.5129,985.9281,2062.96892,969.72748Z" transform="translate(-365.84294 -364.95005)"/><path class="cls-4" d="M1715.099,453.47464c-19.70467,30.916-45.03919,52.56932-53.27536,85.95613-7.65321,31.02466-1.7513,57.65514,14.9513,83.5833,18.10522,28.10558,38.85981,54.50525,53.71187,84.72693,10.68152,21.73469-2.572,38.32105-12.85373,53.86225-5.897,8.91349-11.17784-1.39506-10.90412-7.54369,1.76959-39.74485-22.57333-60.29262-51.87618-82.01708-47.64147-35.32009-73.67528-83.87815-66.55362-145.82774,4.791-41.675,35.92429-70.56,78.83548-72.628C1681.79532,452.88024,1696.51878,453.47464,1715.099,453.47464Z" transform="translate(-365.84294 -364.95005)"/><path class="cls-4" d="M1908.4372,2373.756c-16.88533,2.08093-31.84937-1.347-42.52084-14.61271-27.78495-34.5399-62.72289-41.08535-103.21527-27.78668-8.396,2.75759-18.53844,8.0034-24.584-1.034-5.94644-8.88932,5.238-13.86605,9.48515-20.24092,24.55833-36.86172,59.87477-38.08447,97.50928-28.01392,40.67526,10.88406,76.94177,31.38731,111.19886,55.42794,11.92914,8.37125,12.15265,16.32339-2.18076,23.16895C1939.4095,2367.69492,1925.57511,2377.20153,1908.4372,2373.756Z" transform="translate(-365.84294 -364.95005)"/></svg>