<svg id="Icons" xmlns="http://www.w3.org/2000/svg" viewBox="0 0 1436.07948 1434.90387"><g id="Sum"><path d="M242.09465,947.38683c5.24083-21.66533,11.06909-43.01373,24.86269-61.29575,28.42207-37.6706,67.03726-53.19156,113.14527-53.17213q206.80207.087,413.60421.01875c30.97472-.00112,37.88957-6.85751,37.891-37.59147q.0095-206.80216.0092-413.60429c.004-35.63945,9.06541-67.88365,33.22259-95.40166,33.14257-37.75345,85.84673-51.53139,137.95865-34.89648,44.65276,14.25382,79.26794,58.26576,83.99692,105.72131,1.34863,13.53415,1.76075,27.00775,1.76,40.5514q-.01156,199.09089-.00069,398.18177c.00206,29.97923,7.0589,37.03565,37.03976,37.03758q207.50312.01347,415.00631.0151c36.22469.00719,69.56159,8.94632,96.068,34.89031,39.87045,39.02428,51.77166,86.14027,32.44737,138.32169-17.59359,47.508-53.36243,74.96991-104.24687,81.84377-14.439,1.95058-28.87358,1.87449-43.3494,1.87423q-198.3899-.00321-396.77971.0054c-28.82257.00325-36.18164,7.4313-36.18412,36.48719q-.01784,207.50315-.02413,415.00637c-.01122,34.068-7.90983,65.51895-30.77068,92.04662-20.93071,24.28762-46.87021,39.32551-78.75312,43.87176-1.69946.24222-3.27242,1.37132-4.90435,2.08753H946.04761c-30.497-1.68731-56.5018-12.89687-78.60107-34.46181-31.11757-30.36532-40.46448-68.41855-40.543-109.779q-.379-199.62562-.09578-399.25227c-.00188-38.95054-2.27021-41.21858-41.22015-41.21986q-198.92571-.00681-397.85121-.13352c-25.27165-.05427-50.59323-2.02753-73.62146-14.03838-41.56333-21.678-69.2929-53.14186-70.7773-102.60244a5.7685,5.7685,0,0,0-1.243-2.46575Z" transform="translate(-242.09465 -244.48196)"/></g></svg>