<svg id="Capa_4" data-name="Capa 4" xmlns="http://www.w3.org/2000/svg" viewBox="0 0 1620 360.1413"><g id="Meat_Balls" data-name="Meat Balls"><path d="M959.65689,1144.29236c-98.91071-.33742-180.00679-81.77871-179.63036-180.39491.37739-98.8622,81.866-180.0408,180.36442-179.67826,98.8505.36384,179.97,81.84462,179.60461,180.40489C1139.62866,1063.59715,1058.29452,1144.62888,959.65689,1144.29236Z" transform="translate(-150 -784.18792)"/><path d="M509.15053,963.95994c.14894,99.49111-79.80794,180.03945-179.039,180.36334-98.64229.322-179.95357-80.817-180.11133-179.72947-.15766-98.8385,80.66524-180.07694,179.48214-180.40489C428.34736,783.86078,509.00179,864.56139,509.15053,963.95994Z" transform="translate(-150 -784.18792)"/><path d="M1770,964.3851c-.06529,98.97538-81.12152,180.07011-179.8587,179.944-99.11129-.12665-179.329-80.74107-179.27711-180.16378.05189-99.38669,80.60742-180.1554,179.49733-179.97252C1689.20078,784.37547,1770.06512,865.48914,1770,964.3851Z" transform="translate(-150 -784.18792)"/></g></svg>