<svg id="Capa_4" data-name="Capa 4" xmlns="http://www.w3.org/2000/svg" viewBox="0 0 1620 1620"><defs><style>.cls-1,.cls-2{fill:none;stroke:#000;stroke-width:150px;}.cls-1{stroke-miterlimit:10;}.cls-2{stroke-linecap:round;stroke-linejoin:round;}</style></defs><g id="Side_Menu_Close" data-name="Side Menu Close"><path d="M1533,300a87.00024,87.00024,0,0,1,87,87V1533a87.00034,87.00034,0,0,1-87,87H387a87.00024,87.00024,0,0,1-87-87V387a87.00014,87.00014,0,0,1,87-87H1533m0-150H387c-130.89175,0-237,106.10825-237,237V1533c0,130.89172,106.10825,237,237,237H1533c130.89172,0,237-106.10828,237-237V387c0-130.89175-106.10828-237-237-237Z" transform="translate(-150 -150)"/><line class="cls-1" x1="540" x2="540" y2="1620"/><polyline class="cls-2" points="1199.628 1124.202 885.628 810.202 1199.628 496.203"/></g></svg>